<svg width="104" height="81" viewBox="0 0 104 81" fill="none" xmlns="http://www.w3.org/2000/svg">
<path d="M94.5454 23.8235C87.4545 23.8235 83.6727 30.4941 85.5636 35.7353L68.5454 52.8882C67.1273 52.4118 65.2364 52.4118 63.8182 52.8882L51.5273 40.5C53.4182 35.2588 49.6364 28.5882 42.5455 28.5882C35.9273 28.5882 31.6727 35.2588 33.5636 40.5L11.8182 61.9412C6.61818 60.5118 0 64.3235 0 71.4706C0 76.7118 4.25455 81 9.45455 81C16.0727 81 20.3273 74.3294 18.4364 69.0882L39.7091 47.1706C41.1273 47.6471 43.0182 47.6471 44.4364 47.1706L56.7273 59.5588C55.3091 64.3235 59.0909 71.4706 66.1818 71.4706C73.2727 71.4706 77.0545 64.8 75.1636 59.5588L92.1818 42.4059C97.3818 43.8353 104 40.0235 104 33.3529C104 28.1118 99.7455 23.8235 94.5454 23.8235ZM66.1818 28.5882L70.4364 18.5824L80.3636 14.2941L70.4364 10.0059L66.1818 0L61.9273 10.0059L52 14.2941L61.9273 18.5824L66.1818 28.5882ZM11.8182 38.1176L14.1818 28.5882L23.6364 26.2059L14.1818 23.8235L11.8182 14.2941L9.45455 23.8235L0 26.2059L9.45455 28.5882L11.8182 38.1176Z" fill="#9B51E0" fill-opacity="0.2"/>
</svg>
