<svg width="34" height="34" viewBox="0 0 34 34" fill="none" xmlns="http://www.w3.org/2000/svg">
<path d="M3.40006 10.1992H0V30.5996C0 31.5013 0.358219 32.3662 0.995854 33.0038C1.63349 33.6414 2.49831 33.9996 3.40006 33.9996H23.8004V30.5996H3.40006V10.1992Z" fill="white"/>
<path d="M30.5973 0H10.1969C9.29518 0 8.43036 0.358219 7.79273 0.995854C7.15509 1.63349 6.79688 2.49831 6.79688 3.40006V23.8004C6.79688 24.7022 7.15509 25.567 7.79273 26.2046C8.43036 26.8423 9.29518 27.2005 10.1969 27.2005H30.5973C31.4991 27.2005 32.3639 26.8423 33.0015 26.2046C33.6391 25.567 33.9974 24.7022 33.9974 23.8004V3.40006C33.9974 2.49831 33.6391 1.63349 33.0015 0.995854C32.3639 0.358219 31.4991 0 30.5973 0ZM15.297 20.4004V6.80012L27.1972 13.6002L15.297 20.4004Z" fill="white"/>
</svg>
