<svg width="37" height="32" viewBox="0 0 37 32" fill="none" xmlns="http://www.w3.org/2000/svg">
<path d="M37 30.5455C37 30.9312 36.8501 31.3012 36.5832 31.574C36.3163 31.8468 35.9543 32 35.5769 32H1.42308C1.04565 32 0.683688 31.8468 0.416809 31.574C0.149931 31.3012 0 30.9312 0 30.5455C0 30.1597 0.149931 29.7897 0.416809 29.5169C0.683688 29.2442 1.04565 29.0909 1.42308 29.0909H35.5769C35.9543 29.0909 36.3163 29.2442 36.5832 29.5169C36.8501 29.7897 37 30.1597 37 30.5455ZM37 2.90909V23.2727C37 24.0443 36.7001 24.7842 36.1664 25.3298C35.6326 25.8753 34.9087 26.1818 34.1538 26.1818H2.84615C2.09131 26.1818 1.36738 25.8753 0.833619 25.3298C0.299862 24.7842 0 24.0443 0 23.2727V2.90909C0 2.13755 0.299862 1.39761 0.833619 0.852053C1.36738 0.306493 2.09131 0 2.84615 0H34.1538C34.9087 0 35.6326 0.306493 36.1664 0.852053C36.7001 1.39761 37 2.13755 37 2.90909ZM24.9038 13.0909C24.9038 12.8461 24.8432 12.6053 24.7279 12.3907C24.6125 12.1762 24.4461 11.9949 24.2439 11.8636L16.417 6.77273C16.2018 6.63303 15.9539 6.55494 15.6992 6.54664C15.4444 6.53834 15.1922 6.60013 14.9688 6.72554C14.7454 6.85095 14.559 7.03539 14.4292 7.25958C14.2994 7.48377 14.2308 7.73948 14.2308 8V18.1818C14.2308 18.4423 14.2994 18.698 14.4292 18.9222C14.559 19.1464 14.7454 19.3309 14.9688 19.4563C15.1922 19.5817 15.4444 19.6435 15.6992 19.6352C15.9539 19.6269 16.2018 19.5488 16.417 19.4091L24.2439 14.3182C24.4461 14.1869 24.6125 14.0056 24.7279 13.7911C24.8432 13.5765 24.9038 13.3357 24.9038 13.0909Z" fill="white"/>
</svg>
