<svg width="61" height="46" viewBox="0 0 61 46" fill="none" xmlns="http://www.w3.org/2000/svg">
<path id="Vector" d="M24.4 32.8571L40.2295 23L24.4 13.1429V32.8571ZM59.658 7.13C60.0545 8.67429 60.329 10.7443 60.512 13.3729C60.7255 16.0014 60.817 18.2686 60.817 20.24L61 23C61 30.1957 60.512 35.4857 59.658 38.87C58.8955 41.8271 57.1265 43.7329 54.3815 44.5543C52.948 44.9814 50.325 45.2771 46.299 45.4743C42.334 45.7043 38.7045 45.8029 35.3495 45.8029L30.5 46C17.7205 46 9.76 45.4743 6.6185 44.5543C3.8735 43.7329 2.1045 41.8271 1.342 38.87C0.9455 37.3257 0.671 35.2557 0.488 32.6271C0.2745 29.9986 0.183 27.7314 0.183 25.76L0 23C0 15.8043 0.488 10.5143 1.342 7.13C2.1045 4.17286 3.8735 2.26714 6.6185 1.44571C8.052 1.01857 10.675 0.722857 14.701 0.525714C18.666 0.295714 22.2955 0.197143 25.6505 0.197143L30.5 0C43.2795 0 51.24 0.525714 54.3815 1.44571C57.1265 2.26714 58.8955 4.17286 59.658 7.13Z" fill="url(#paint0_radial_631_1056)"/>
<defs>
<radialGradient id="paint0_radial_631_1056" cx="0" cy="0" r="1" gradientUnits="userSpaceOnUse" gradientTransform="translate(13.4767 -9.96666) rotate(49.6642) scale(73.4216 104.228)">
<stop stop-color="#1F5DB0"/>
<stop offset="0.690389" stop-color="#217BF4" stop-opacity="0.46"/>
<stop offset="1" stop-color="#1D5CAF"/>
</radialGradient>
</defs>
</svg>
