<svg width="341" height="58" viewBox="0 0 341 58" fill="none" xmlns="http://www.w3.org/2000/svg">
<path d="M0.5 14.5C0.5 6.76801 6.76801 0.5 14.5 0.5H326.5C334.232 0.5 340.5 6.76801 340.5 14.5V21.75V22.8844C340.5 24.1109 339.655 25.176 338.461 25.4553C334.712 26.332 334.712 31.668 338.461 32.5447C339.655 32.824 340.5 33.8891 340.5 35.1156V36.25V43.5C340.5 51.232 334.232 57.5 326.5 57.5H14.5C6.76802 57.5 0.5 51.232 0.5 43.5V36.25V34.7412C0.5 33.6743 1.15856 32.7181 2.15536 32.3377C5.2205 31.1681 5.2205 26.8319 2.15536 25.6623C1.15856 25.2819 0.5 24.3257 0.5 23.2588V21.75V14.5Z" fill="#9B51E0" fill-opacity="0.15" stroke="#9B51E0"/>
</svg>
