<svg width="662" height="59" viewBox="0 0 662 59" fill="none" xmlns="http://www.w3.org/2000/svg">
<path d="M1 15C1 7.26801 7.26801 1 15 1H647C654.732 1 661 7.26801 661 15V22.25V23.3844C661 24.6109 660.155 25.676 658.961 25.9553C655.212 26.832 655.212 32.168 658.961 33.0447C660.155 33.324 661 34.3891 661 35.6156V36.75V44C661 51.732 654.732 58 647 58H15C7.26802 58 1 51.732 1 44V36.75V35.2412C1 34.1743 1.65856 33.2181 2.65536 32.8377C5.7205 31.6681 5.7205 27.3319 2.65536 26.1623C1.65856 25.7819 1 24.8257 1 23.7588V22.25V15Z" fill="#9B51E0" fill-opacity="0.15" stroke="#9B51E0"/>
</svg>
