<svg width="26" height="26" viewBox="0 0 26 26" fill="none" xmlns="http://www.w3.org/2000/svg">
<g id="account-cash" clip-path="url(#clip0_3766_660)">
<path id="Vector" d="M11.9899 8.95594C11.9899 11.1905 10.18 13.0004 7.94545 13.0004C5.7109 13.0004 3.90101 11.1905 3.90101 8.95594C3.90101 6.72139 5.7109 4.9115 7.94545 4.9115C10.18 4.9115 11.9899 6.72139 11.9899 8.95594ZM11.9899 15.7506V21.0893H0.867676V19.067C0.867676 16.8325 4.03245 15.0226 7.94545 15.0226C9.46212 15.0226 10.8473 15.2956 11.9899 15.7506ZM25.1343 19.0893C25.1343 20.1938 24.2389 21.0893 23.1343 21.0893H16.0121C14.9076 21.0893 14.0121 20.1938 14.0121 19.0893V5.90039C14.0121 4.79582 14.9075 3.90039 16.0121 3.90039H23.1343C24.2389 3.90039 25.1343 4.79582 25.1343 5.90039V19.0893ZM18.201 12.4948C18.201 11.0995 18.201 9.96705 18.201 9.96705C18.9955 10.8337 22.101 12.4948 22.101 12.4948L18.201 15.0226C18.201 15.0226 18.201 13.8902 18.201 12.4948ZM23.1121 9.53324C23.1121 8.65599 22.3025 7.97273 21.682 7.35265C21.6651 7.33574 21.6484 7.31854 21.6321 7.30105C21.0609 6.68844 20.4109 5.92261 19.5732 5.92261C18.7356 5.92261 18.0874 6.68888 17.5169 7.30217C17.5004 7.31995 17.4835 7.33743 17.4663 7.3546C16.8456 7.97534 16.0343 8.65648 16.0343 9.53434V15.4564C16.0343 16.3337 16.8443 17.0164 17.4644 17.6369C17.4813 17.6538 17.4979 17.671 17.5142 17.6885C18.085 18.3016 18.7356 19.067 19.5732 19.067C20.4109 19.067 21.0633 18.302 21.6348 17.6897C21.6509 17.6724 21.6673 17.6555 21.6839 17.6389C22.3038 17.019 23.1121 16.3342 23.1121 15.4575V9.53324Z" fill="#4E3FB8"/>
</g>
<defs>
<clipPath id="clip0_3766_660">
<rect width="24.2667" height="24.2667" fill="white" transform="translate(0.866699 0.867188)"/>
</clipPath>
</defs>
</svg>
