<?xml version="1.0" encoding="utf-8"?>
<!-- Generator: Adobe Illustrator 25.4.1, SVG Export Plug-In . SVG Version: 6.00 Build 0)  -->
<svg version="1.1" id="Layer_1" xmlns="http://www.w3.org/2000/svg" xmlns:xlink="http://www.w3.org/1999/xlink" x="0px" y="0px"
	 viewBox="0 0 1095.3 1092.6" style="enable-background:new 0 0 1095.3 1092.6;" xml:space="preserve">
<style type="text/css">
	.st0{fill:#FFFFFF;}
	.st1{fill:#4E3FB8;}
	.st2{fill:#FFFFFF;stroke:#4E3FB8;stroke-miterlimit:10;}
	.st3{opacity:0.1294;}
</style>
<g>
	<g>
		<path class="st0" d="M547.7,77.4L547.7,77.4c262.8,0,475.9,213.1,475.9,475.9l0,0c0,262.8-213.1,475.9-475.9,475.9l0,0
			c-262.8,0-475.9-213.1-475.9-475.9l0,0C71.8,290.5,284.8,77.4,547.7,77.4z"/>
	</g>
	<g>
		<g>
			
				<rect x="369.3" y="407.6" transform="matrix(-1 -1.224647e-16 1.224647e-16 -1 1095.3008 1062.0841)" class="st1" width="356.7" height="246.9"/>
			<path class="st1" d="M726,656.8H369.3c-1.3,0-2.3-1-2.3-2.3V407.6c0-1.3,1-2.3,2.3-2.3H726c1.3,0,2.3,1,2.3,2.3v246.9
				C728.2,655.8,727.2,656.8,726,656.8z M371.6,652.2h352.1V409.8H371.6V652.2z"/>
		</g>
		<g>
			
				<rect x="369.3" y="397.1" transform="matrix(-1 -1.224647e-16 1.224647e-16 -1 1095.3008 826.7112)" class="st0" width="356.7" height="32.6"/>
			<path class="st0" d="M726,431.9H369.3c-1.3,0-2.3-1-2.3-2.3v-32.6c0-1.3,1-2.3,2.3-2.3H726c1.3,0,2.3,1,2.3,2.3v32.6
				C728.2,430.9,727.2,431.9,726,431.9z M371.6,427.4h352.1v-28H371.6V427.4z"/>
		</g>
		<g>
			<g>
				<path class="st1" d="M627.3,415.6h-18.8c-1.3,0-2.3-1-2.3-2.3s1-2.3,2.3-2.3h18.8c1.3,0,2.3,1,2.3,2.3S628.5,415.6,627.3,415.6z
					"/>
			</g>
			<g>
				<path class="st1" d="M665.4,415.6h-18.8c-1.3,0-2.3-1-2.3-2.3s1-2.3,2.3-2.3h18.8c1.3,0,2.3,1,2.3,2.3S666.7,415.6,665.4,415.6z
					"/>
			</g>
			<g>
				<path class="st1" d="M703.6,415.6h-18.8c-1.3,0-2.3-1-2.3-2.3s1-2.3,2.3-2.3h18.8c1.3,0,2.3,1,2.3,2.3S704.8,415.6,703.6,415.6z
					"/>
			</g>
		</g>
		<path class="st2" d="M587.1,620.2l-10.5-34.6c-0.2-0.6-0.6-1.1-1.1-1.4c-0.5-0.3-1.2-0.3-1.7-0.1l-21.1,6.8l-13.2-19.5l11.8-20.5
			c0.3-0.6,0.4-1.2,0.2-1.8c-0.2-0.6-0.6-1.1-1.2-1.4l-31.6-14.1c-0.6-0.2-1.2-0.3-1.8,0c-0.6,0.2-1,0.7-1.3,1.2l-9.4,23.1
			l-23.7,0.3l-10-20.1c-0.3-0.6-0.8-1-1.4-1.2c-0.6-0.2-1.2-0.1-1.8,0.2l-32.3,17.9c-0.6,0.3-1,0.8-1.1,1.5c-0.1,0.6,0,1.3,0.3,1.8
			l12.5,17.9l-15.7,18.4l-16.1-5.4c-0.6-0.2-1.3-0.1-1.8,0.2c-0.6,0.3-1,0.8-1.1,1.4l-9.3,38.1c-0.1,0.6,0,1.2,0.3,1.8
			s0.9,0.9,1.5,1l19.5,4l8.1,22.1l-14.8,15.6c-0.4,0.4-0.6,1-0.6,1.7c0,0.6,0.3,1.2,0.8,1.6l26.6,23.5c0.5,0.4,1.1,0.6,1.7,0.6
			c0.6-0.1,1.2-0.4,1.6-0.9l11.8-16.2l21.4,4.5l2.3,21.7c0.1,1.2,1.1,2,2.3,2c0,0,0.1,0,0.1,0l32.6-2c0.6,0,1.2-0.3,1.6-0.8
			c0.4-0.5,0.6-1.1,0.5-1.8l-2.9-19.9l16.2-10.5L552,692c0.5,0.4,1.1,0.6,1.7,0.6c0.6,0,1.2-0.3,1.6-0.8l24.4-29.9
			c0.4-0.5,0.6-1.2,0.5-1.8c-0.1-0.7-0.5-1.2-1.1-1.6l-20.4-11.9l2.2-16.6l24.6-6.9c0.6-0.2,1.1-0.6,1.4-1.1
			C587.3,621.4,587.3,620.8,587.1,620.2z M493.8,643.2c-9.7-1-17.6-8.8-18.5-18.5c-1.3-13.1,9.7-24.1,22.8-22.8
			c9.7,1,17.6,8.8,18.5,18.5C517.9,633.5,507,644.5,493.8,643.2z"/>
		<g>
			<path class="st0" d="M508.4,478.4h-89.7c-1.3,0-2.3-1-2.3-2.3s1-2.3,2.3-2.3h89.7c1.3,0,2.3,1,2.3,2.3S509.6,478.4,508.4,478.4z"
				/>
		</g>
		<g>
			<path class="st0" d="M696.8,590.2h-68c-1.3,0-2.3-1-2.3-2.3c0-1.3,1-2.3,2.3-2.3h68c1.3,0,2.3,1,2.3,2.3
				C699.1,589.2,698,590.2,696.8,590.2z"/>
		</g>
		<g>
			<path class="st0" d="M476.2,512.6h-57.4c-1.3,0-2.3-1-2.3-2.3c0-1.3,1-2.3,2.3-2.3h57.4c1.3,0,2.3,1,2.3,2.3
				C478.5,511.5,477.5,512.6,476.2,512.6z"/>
		</g>
		<g>
			<rect x="588.1" y="464.6" class="st0" width="102.7" height="77.1"/>
			<path class="st0" d="M690.8,543.9H588.1c-1.3,0-2.3-1-2.3-2.3v-77.1c0-1.3,1-2.3,2.3-2.3h102.7c1.3,0,2.3,1,2.3,2.3v77.1
				C693.1,542.9,692.1,543.9,690.8,543.9z M590.4,539.4h98.2v-72.5h-98.2V539.4z"/>
		</g>
		<g class="st3">
			<rect x="367.1" y="431" width="360.3" height="10.6"/>
		</g>
	</g>
</g>
</svg>
