<svg width="22" height="22" viewBox="0 0 22 22" fill="none" xmlns="http://www.w3.org/2000/svg">
<g id="content-copy">
<path id="Vector" d="M17.0668 3.20085L17.0668 15.3342L17.0668 3.20085ZM17.0668 17.0675L7.5335 17.0675C7.07379 17.0675 6.63291 16.8849 6.30784 16.5598C5.98278 16.2348 5.80016 15.7939 5.80016 15.3342L5.80016 3.20085C5.80016 2.74114 5.98278 2.30026 6.30784 1.9752C6.63291 1.65013 7.07379 1.46751 7.53349 1.46751L17.0668 1.46751C17.5265 1.46751 17.9674 1.65013 18.2925 1.9752C18.6175 2.30026 18.8002 2.74114 18.8002 3.20085L18.8002 15.3342C18.8002 15.7939 18.6175 16.2348 18.2925 16.5598C17.9674 16.8849 17.5265 17.0675 17.0668 17.0675ZM14.4668 20.5342L4.06683 20.5342C3.60712 20.5342 3.16624 20.3516 2.84118 20.0265C2.51611 19.7014 2.3335 19.2606 2.3335 18.8008L2.33349 6.66751L4.06683 6.66751L4.06683 18.8008L14.4668 18.8008L14.4668 20.5342Z" fill="#4E3FB8"/>
</g>
</svg>
