<svg width="26" height="26" viewBox="0 0 26 26" fill="none" xmlns="http://www.w3.org/2000/svg">
<g id="email-fast" clip-path="url(#clip0_3766_656)">
<path id="Vector" d="M23.1111 6.42773H9.9667C8.85448 6.42773 7.94448 7.33773 7.94448 8.44996V17.55C7.94448 18.6723 8.85448 19.5722 9.9667 19.5722H23.1111C24.2335 19.5722 25.1334 18.6723 25.1334 17.55V8.44996C25.1334 7.33773 24.2335 6.42773 23.1111 6.42773ZM23.1111 10.1385L16.5389 13.5055L9.9667 10.1385V8.44996L16.5389 11.7967L23.1111 8.44996V10.1385ZM5.92226 17.55C5.92226 17.7218 5.95259 17.8836 5.97281 18.0555H1.87781C1.31968 18.0555 0.866699 17.6005 0.866699 17.0444C0.866699 16.4883 1.31968 16.0333 1.87781 16.0333H5.92226V17.55ZM3.90003 7.9444H5.97281C5.95259 8.11629 5.92226 8.27807 5.92226 8.44996V9.96662H3.90003C3.34392 9.96662 2.88892 9.51162 2.88892 8.95551C2.88892 8.3994 3.34392 7.9444 3.90003 7.9444ZM1.87781 13C1.87781 12.4438 2.33281 11.9888 2.88892 11.9888H5.92226V14.0111H2.88892C2.33281 14.0111 1.87781 13.5561 1.87781 13Z" fill="#4E3FB8"/>
</g>
<defs>
<clipPath id="clip0_3766_656">
<rect width="24.2667" height="24.2667" fill="white" transform="translate(0.866699 0.867188)"/>
</clipPath>
</defs>
</svg>
