<?xml version="1.0" encoding="utf-8"?>
<!-- Generator: Adobe Illustrator 25.4.1, SVG Export Plug-In . SVG Version: 6.00 Build 0)  -->
<svg version="1.1" id="Layer_1" xmlns="http://www.w3.org/2000/svg" xmlns:xlink="http://www.w3.org/1999/xlink" x="0px" y="0px"
	 viewBox="0 0 1095.3 1092.6" style="enable-background:new 0 0 1095.3 1092.6;" xml:space="preserve">
<style type="text/css">
	.st0{fill:#FFFFFF;}
	.st1{fill:#4E3FB8;}
	.st2{fill:#6C63E5;}
</style>
<g>
	<path class="st0" d="M547.7,70.4L547.7,70.4c262.8,0,475.9,213.1,475.9,475.9l0,0c0,262.8-213.1,475.9-475.9,475.9l0,0
		c-262.8,0-475.9-213.1-475.9-475.9l0,0C71.8,283.5,284.8,70.4,547.7,70.4z"/>
	<path class="st1" d="M384.6,406.2H689c9.5,0,17.3,7.7,17.3,17.3V622c0,9.5-7.7,17.3-17.3,17.3H384.6c-9.5,0-17.3-7.7-17.3-17.3
		V423.5C367.3,414,375,406.2,384.6,406.2z"/>
	<path class="st1" d="M697.8,485.9H375.9c-0.1,1.2-0.3,2.5-0.3,3.9c0,41.7,0,83.3,0,125c0,11,5.1,16,16.2,16c53.1,0,106.2,0,159.2,0
		c1.4,0,3.1-0.4,4.1,0.2c1.5,1,3.4,2.7,3.3,4.1c0,1.4-2.1,2.9-3.6,3.9c-0.8,0.5-2.2,0.1-3.3,0.1c-53.3,0-106.7-0.2-160,0.2
		c-15,0.1-24.7-10.9-24.6-24.6c0.4-61.5,0.2-123,0.2-184.5c0-15.1,8.8-23.9,23.8-23.9c97.1,0,194.3,0,291.4,0
		c15.3,0,24.1,8.7,24.1,24c0.1,38,0.1,76,0,114.1c0,0.6,0,1.3,0,1.9c-0.3,2.6-1.7,4.3-4.3,4.3s-4.2-1.8-4.2-4.4
		c-0.1-5.1-0.1-10.3-0.1-15.4c0-13.6,0-27.1,0-40.7C697.8,488.8,697.8,487.5,697.8,485.9z M697.6,450.4H375.9v26.5h321.7V450.4z
		 M697.7,441.6c0-4,0-7.6,0-11.3c0-10.2-5.3-15.5-15.5-15.5c-96,0-191.9,0-287.9,0c-1.9,0-3.8-0.1-5.6,0c-6.3,0.3-12.2,5-12.7,10.8
		c-0.5,5.2-0.1,10.5-0.1,15.9L697.7,441.6z"/>
	<path class="st1" d="M635.7,628.6c14.7-14.7,29.1-29.2,43.5-43.6c5.8-5.8,11.5-11.6,17.3-17.3c3-3,4.9-2.9,8,0.1
		c7.1,7.1,14.2,14.1,21.3,21.2c3.5,3.5,3.5,5.3-0.1,8.9c-28.5,28.6-57.1,57.1-85.6,85.6c-3.8,3.8-5.4,3.8-9.1,0.1
		c-20.9-20.8-41.7-41.7-62.5-62.5c-2.9-2.9-2.9-5,0-8c7.3-7.4,14.6-14.8,22-22.1c2.5-2.5,5-2.3,7.8,0.5
		c11.8,11.8,23.6,23.6,35.4,35.4C634.2,627.4,634.8,627.8,635.7,628.6z"/>
	<path class="st1" d="M433.3,604.3c-6.4,5-13.4,6.9-21,4.5c-8.9-2.8-14.2-9-15.5-18.1c-1.3-9,2.2-16.4,9.8-21.3
		c7.8-5,15.9-5,23.8-0.1c2,1.2,3.3,1.8,5.6,0.3c10-6.8,23.7-4.1,30.4,5.9c5.7,8.5,4.8,19.7-2.1,27.2c-7.4,8.2-19.6,9.4-29.1,2.9
		C434.6,605.2,434.1,604.8,433.3,604.3z M432,588c0.1-7.4-5.8-13.5-13.2-13.6c-7.4-0.1-13.5,5.8-13.6,13.2s5.8,13.5,13.2,13.6
		c0.1,0,0.2,0,0.4,0C426,601,431.8,595.2,432,588z M461.4,587.9c0.1-7.4-5.8-13.4-13.2-13.5c-2.4,0-4.7,0.6-6.7,1.7
		c-2.1,1.1-2.7,2.3-2.3,5c0.7,4.5,0.7,9.1,0,13.6c-0.4,2.6,0.1,3.6,2.1,4.7c6.4,3.7,14.6,1.6,18.3-4.8
		C460.8,592.5,461.4,590.2,461.4,587.9L461.4,587.9z"/>
	<path class="st2" d="M697.6,450.4v30.7H375.9v-30.7H697.6z"/>
	<path class="st2" d="M697.7,445.6H375.9c0-6.3-0.4-12.4,0.1-18.3c0.7-6.7,6.1-11.9,12.7-12.4c1.9-0.1,3.8,0,5.6,0
		c96,0,191.9,0,287.9,0c10.2,0,15.5,6.1,15.5,17.8C697.8,436.8,697.7,441,697.7,445.6z"/>
	<path class="st0" d="M637.6,678.5c-20-20-44.2-41.2-64.5-61.6l21-21.9c6,6.1,12.4,12.8,18.8,19.3c6.3,6.4,12.7,12.7,19,19
		c3.8,3.8,5.5,3.8,9.2,0.1c19.8-19.8,37.3-39.5,57-59.4l2-1.8c0.4,0.4,15.6,14.6,21.3,20.3C692.9,621,666.4,649.7,637.6,678.5z"/>
	<path class="st0" d="M437,588c-0.2,10.1-8.5,18.2-18.7,18.1c-10.1-0.2-18.2-8.5-18.1-18.7c0.2-10.1,8.5-18.2,18.7-18.1
		C429,569.5,437.1,577.9,437,588L437,588z"/>
	<path class="st0" d="M467,587.9c0,10.2-8.3,18.4-18.5,18.4c-3.2,0-6.4-0.9-9.2-2.5c-2.7-1.5-4.5-3.3-2.8-6.5
		c3.3-6.5,2.6-12.9,0-18.7c-1.5-3.4,0.3-5.4,3.2-6.9c8.9-5,20.1-1.9,25.1,7C466.2,581.4,467,584.6,467,587.9z"/>
	<path class="st1" d="M577.2,512.7h49.6c3,0,5.4,2.4,5.4,5.4v21.3c0,3-2.4,5.4-5.4,5.4h-49.6c-3,0-5.4-2.4-5.4-5.4v-21.3
		C571.8,515.1,574.2,512.7,577.2,512.7z"/>
	<path class="st1" d="M405.8,512.7h132.4c3,0,5.4,2.4,5.4,5.4v21.3c0,3-2.4,5.4-5.4,5.4H405.8c-3,0-5.4-2.4-5.4-5.4v-21.3
		C400.4,515.1,402.8,512.7,405.8,512.7z"/>
	<path class="st0" d="M404.7,515.8h134.8c0.5,0,0.8,0.4,0.8,0.8v24.3c0,0.5-0.4,0.8-0.8,0.8H404.7c-0.5,0-0.8-0.4-0.8-0.8v-24.3
		C403.8,516.2,404.2,515.8,404.7,515.8z"/>
	<path class="st0" d="M486,581.2h23.7c2.1,0,3.9,1.7,3.9,3.9v3.1c0,2.1-1.7,3.9-3.9,3.9H486c-2.1,0-3.9-1.7-3.9-3.9v-3.1
		C482.1,582.9,483.9,581.2,486,581.2z"/>
	<path class="st0" d="M522,581.2h45.3c2.1,0,3.9,1.7,3.9,3.9v3.1c0,2.1-1.7,3.9-3.9,3.9H522c-2.1,0-3.9-1.7-3.9-3.9v-3.1
		C518.2,582.9,519.9,581.2,522,581.2z"/>
</g>
<path class="st0" d="M642,611.4H633c-0.7,0-1.2-0.6-1.2-1.2v-5.5c-8.4-1.2-16.2-4.9-22.4-10.7c-0.5-0.4-0.5-1.2-0.1-1.7l7.1-8.7
	c0.4-0.5,1.2-0.6,1.7-0.2c0,0,0,0,0.1,0.1c3.9,3.7,8.6,6.3,13.7,7.8v-16.6c-12.2-3.3-20.2-8.1-20.2-20c0-10.9,8.1-19.4,20.2-21.3
	v-4.9c0-0.7,0.6-1.2,1.2-1.2h8.9c0.7,0,1.2,0.6,1.2,1.2v5c7.5,1,14.5,4.2,20.2,9.3c0.5,0.4,0.6,1.2,0.2,1.7l-6.7,9
	c-0.4,0.6-1.2,0.7-1.7,0.3c0,0-0.1,0-0.1-0.1c-3.4-3.1-7.5-5.4-11.9-6.7v15.9c11.7,2.8,22.4,7.3,22.4,20.6
	c0,12.1-8.5,20.3-22.4,21.6v5.1C643.2,610.8,642.6,611.4,642,611.4L642,611.4z M634.3,608.9h6.4v-5c0-0.7,0.5-1.2,1.2-1.2
	c13.1-0.9,21.2-8.3,21.2-19.3c0-11.3-8.6-15.5-21.4-18.4c-0.6-0.1-1-0.6-1-1.2v-18.4c0-0.7,0.6-1.2,1.2-1.2c0.1,0,0.2,0,0.3,0
	c4.9,1.2,9.6,3.5,13.4,6.8l5.2-7c-5.4-4.5-12-7.4-19-8.1c-0.6-0.1-1.1-0.6-1.1-1.2v-4.8h-6.4v4.7c0,0.6-0.5,1.2-1.1,1.2
	c-11.4,1.4-19.1,9-19.1,19c0,10.7,7.4,14.7,19.3,17.8c0.5,0.1,0.9,0.6,0.9,1.2v19.1c0,0.7-0.6,1.2-1.2,1.2c-0.1,0-0.2,0-0.3,0
	c-5.7-1.3-11-4-15.4-7.9l-5.5,6.8c6,5.2,13.4,8.5,21.3,9.4c0.6,0.1,1.1,0.6,1.1,1.2L634.3,608.9z M642,594.6c-0.7,0-1.2-0.6-1.2-1.2
	v-17.5c0-0.7,0.6-1.2,1.2-1.2c0.1,0,0.2,0,0.4,0.1c7,2.1,11,4.3,11,9.8c0,5.3-4.4,9.3-11.2,10.1C642,594.6,642,594.6,642,594.6z
	 M643.2,577.6v14.3c4.7-0.9,7.6-3.7,7.6-7.4C650.8,581.3,648.9,579.5,643.2,577.6z M633,562.7c-0.1,0-0.3,0-0.4-0.1
	c-4.5-1.6-8.7-3.8-8.7-9c0-4.5,3.5-8.4,8.8-9.6c0.7-0.2,1.3,0.2,1.5,0.9c0,0.1,0,0.2,0,0.3v16.3C634.3,562.1,633.7,562.6,633,562.7
	L633,562.7z M631.8,546.8c-3.3,1.3-5.4,3.9-5.4,6.7c0,2.7,1.4,4.4,5.4,6V546.8z"/>
</svg>
