<?xml version="1.0" encoding="utf-8"?>
<!-- Generator: Adobe Illustrator 25.4.1, SVG Export Plug-In . SVG Version: 6.00 Build 0)  -->
<svg version="1.1" id="Layer_1" xmlns="http://www.w3.org/2000/svg" xmlns:xlink="http://www.w3.org/1999/xlink" x="0px" y="0px"
	 viewBox="0 0 1123.2 1092.6" style="enable-background:new 0 0 1123.2 1092.6;" xml:space="preserve">
<style type="text/css">
	.st0{fill:#FFFFFF;}
	.st1{fill:#4E3FB8;}
</style>
<g>
	<path class="st0" d="M561.6,70.4L561.6,70.4c262.8,0,475.9,213.1,475.9,475.9v0c0,262.8-213.1,475.9-475.9,475.9l0,0
		c-262.8,0-475.9-213.1-475.9-475.9v0C85.7,283.5,298.8,70.4,561.6,70.4z"/>
	<path class="st1" d="M672.6,403.5L672.6,403.5z M672.6,657.3H498.2c-17.5,0-31.7-14.2-31.7-31.7V403.5c0-17.5,14.2-31.7,31.7-31.7
		h174.5c17.5,0,31.7,14.2,31.7,31.7v222.1C704.4,643.1,690.2,657.3,672.6,657.3L672.6,657.3z M625.1,720.8H434.7
		c-17.5,0-31.7-14.2-31.7-31.7V467h31.7v222.1h190.3V720.8z"/>
</g>
</svg>
