<svg width="1920" height="932" viewBox="0 0 1920 932" fill="none" xmlns="http://www.w3.org/2000/svg">
<g clip-path="url(#clip0_51_4)">
<rect width="1920" height="932" fill="white"/>
<rect x="47.7617" y="-19" width="1935.86" height="985.096" rx="20" fill="url(#paint0_linear_51_4)"/>
<mask id="mask0_51_4" style="mask-type:alpha" maskUnits="userSpaceOnUse" x="-38" y="-19" width="1595" height="955">
<path d="M-38 21.0294C-38 2.17323 -38 -7.25485 -32.1421 -13.1127C-26.2843 -18.9706 -16.8562 -18.9706 2 -18.9706H1517C1535.86 -18.9706 1545.28 -18.9706 1551.14 -13.1127C1557 -7.25485 1557 2.17324 1557 21.0294V895.029C1557 913.886 1557 923.314 1551.14 929.172C1545.28 935.029 1535.86 935.029 1517 935.029H1.99998C-16.8562 935.029 -26.2843 935.029 -32.1421 929.172C-38 923.314 -38 913.886 -38 895.029V21.0294Z" fill="white"/>
</mask>
<g mask="url(#mask0_51_4)">
<path d="M1457.47 660.315C1319.79 739.8 1143.45 692.109 1063.59 553.794C983.737 415.478 1030.61 238.916 1168.28 159.43C1305.95 79.9444 1482.3 127.635 1562.15 265.951C1642.01 404.266 1595.14 580.829 1457.47 660.315Z" fill="url(#paint1_linear_51_4)" fill-opacity="0.3"/>
<ellipse cx="489.178" cy="344.529" rx="182.118" ry="182.723" fill="url(#paint2_linear_51_4)" fill-opacity="0.3"/>
<ellipse cx="787.112" cy="728.122" rx="90.2764" ry="90.5612" transform="rotate(165 787.112 728.122)" fill="url(#paint3_linear_51_4)" fill-opacity="0.3"/>
</g>
<g opacity="0.2">
<ellipse cx="5.06424" cy="5.07299" rx="5.06424" ry="5.07299" transform="matrix(0.501295 -0.865277 0.866771 0.498707 901.004 455.333)" fill="white"/>
<ellipse cx="5.06424" cy="5.07299" rx="5.06424" ry="5.07299" transform="matrix(0.501295 -0.865277 0.866771 0.498707 913.188 434.303)" fill="white"/>
<ellipse cx="5.06424" cy="5.07299" rx="5.06424" ry="5.07299" transform="matrix(0.501295 -0.865277 0.866771 0.498707 925.375 413.273)" fill="white"/>
<ellipse cx="5.06424" cy="5.07299" rx="5.06424" ry="5.07299" transform="matrix(0.501295 -0.865277 0.866771 0.498707 937.559 392.227)" fill="white"/>
<ellipse cx="5.06424" cy="5.07299" rx="5.06424" ry="5.07299" transform="matrix(0.501295 -0.865277 0.866771 0.498707 949.746 371.197)" fill="white"/>
<ellipse cx="5.06424" cy="5.07299" rx="5.06424" ry="5.07299" transform="matrix(0.501295 -0.865277 0.866771 0.498707 925.625 469.509)" fill="white"/>
<ellipse cx="5.06424" cy="5.07299" rx="5.06424" ry="5.07299" transform="matrix(0.501295 -0.865277 0.866771 0.498707 937.809 448.48)" fill="white"/>
<ellipse cx="5.06424" cy="5.07299" rx="5.06424" ry="5.07299" transform="matrix(0.501295 -0.865277 0.866771 0.498707 949.996 427.45)" fill="white"/>
<ellipse cx="5.06424" cy="5.07299" rx="5.06424" ry="5.07299" transform="matrix(0.501295 -0.865277 0.866771 0.498707 962.18 406.404)" fill="white"/>
<ellipse cx="5.06424" cy="5.07299" rx="5.06424" ry="5.07299" transform="matrix(0.501295 -0.865277 0.866771 0.498707 974.367 385.374)" fill="white"/>
<ellipse cx="5.06424" cy="5.07299" rx="5.06424" ry="5.07299" transform="matrix(0.501295 -0.865277 0.866771 0.498707 950.25 483.669)" fill="white"/>
<ellipse cx="5.06424" cy="5.07299" rx="5.06424" ry="5.07299" transform="matrix(0.501295 -0.865277 0.866771 0.498707 962.434 462.639)" fill="white"/>
<ellipse cx="5.06424" cy="5.07299" rx="5.06424" ry="5.07299" transform="matrix(0.501295 -0.865277 0.866771 0.498707 974.621 441.609)" fill="white"/>
<ellipse cx="5.06424" cy="5.07299" rx="5.06424" ry="5.07299" transform="matrix(0.501295 -0.865277 0.866771 0.498707 986.805 420.563)" fill="white"/>
<ellipse cx="5.06424" cy="5.07299" rx="5.06424" ry="5.07299" transform="matrix(0.501295 -0.865277 0.866771 0.498707 998.992 399.533)" fill="white"/>
<ellipse cx="5.06424" cy="5.07299" rx="5.06424" ry="5.07299" transform="matrix(0.501295 -0.865277 0.866771 0.498707 974.883 497.839)" fill="white"/>
<ellipse cx="5.06424" cy="5.07299" rx="5.06424" ry="5.07299" transform="matrix(0.501295 -0.865277 0.866771 0.498707 987.066 476.809)" fill="white"/>
<ellipse cx="5.06424" cy="5.07299" rx="5.06424" ry="5.07299" transform="matrix(0.501295 -0.865277 0.866771 0.498707 999.254 455.779)" fill="white"/>
<ellipse cx="5.06424" cy="5.07299" rx="5.06424" ry="5.07299" transform="matrix(0.501295 -0.865277 0.866771 0.498707 1011.44 434.733)" fill="white"/>
<ellipse cx="5.06424" cy="5.07299" rx="5.06424" ry="5.07299" transform="matrix(0.501295 -0.865277 0.866771 0.498707 1023.62 413.703)" fill="white"/>
<ellipse cx="5.06424" cy="5.07299" rx="5.06424" ry="5.07299" transform="matrix(0.501295 -0.865277 0.866771 0.498707 943.012 467.815)" fill="white"/>
<ellipse cx="5.06424" cy="5.07299" rx="5.06424" ry="5.07299" transform="matrix(0.501295 -0.865277 0.866771 0.498707 955.195 446.785)" fill="white"/>
<ellipse cx="5.06424" cy="5.07299" rx="5.06424" ry="5.07299" transform="matrix(0.501295 -0.865277 0.866771 0.498707 967.383 425.755)" fill="white"/>
<ellipse cx="5.06424" cy="5.07299" rx="5.06424" ry="5.07299" transform="matrix(0.501295 -0.865277 0.866771 0.498707 979.566 404.709)" fill="white"/>
<ellipse cx="5.06424" cy="5.07299" rx="5.06424" ry="5.07299" transform="matrix(0.501295 -0.865277 0.866771 0.498707 918.391 453.645)" fill="white"/>
<ellipse cx="5.06424" cy="5.07299" rx="5.06424" ry="5.07299" transform="matrix(0.501295 -0.865277 0.866771 0.498707 930.574 432.615)" fill="white"/>
<ellipse cx="5.06424" cy="5.07299" rx="5.06424" ry="5.07299" transform="matrix(0.501295 -0.865277 0.866771 0.498707 942.762 411.585)" fill="white"/>
<ellipse cx="5.06424" cy="5.07299" rx="5.06424" ry="5.07299" transform="matrix(0.501295 -0.865277 0.866771 0.498707 954.945 390.539)" fill="white"/>
<ellipse cx="5.06424" cy="5.07299" rx="5.06424" ry="5.07299" transform="matrix(0.501295 -0.865277 0.866771 0.498707 967.641 481.978)" fill="white"/>
<ellipse cx="5.06424" cy="5.07299" rx="5.06424" ry="5.07299" transform="matrix(0.501295 -0.865277 0.866771 0.498707 979.824 460.949)" fill="white"/>
<ellipse cx="5.06424" cy="5.07299" rx="5.06424" ry="5.07299" transform="matrix(0.501295 -0.865277 0.866771 0.498707 992.012 439.919)" fill="white"/>
<ellipse cx="5.06424" cy="5.07299" rx="5.06424" ry="5.07299" transform="matrix(0.501295 -0.865277 0.866771 0.498707 1004.2 418.873)" fill="white"/>
</g>
<g opacity="0.2">
<ellipse cx="5.06598" cy="5.07125" rx="5.06598" ry="5.07125" transform="matrix(0.83538 -0.55184 0.553172 0.831637 1525.27 611.171)" fill="white"/>
<ellipse cx="5.06598" cy="5.07125" rx="5.06598" ry="5.07125" transform="matrix(0.83538 -0.55184 0.553172 0.831637 1545.58 597.76)" fill="white"/>
<ellipse cx="5.06598" cy="5.07125" rx="5.06598" ry="5.07125" transform="matrix(0.83538 -0.55184 0.553172 0.831637 1565.89 584.344)" fill="white"/>
<ellipse cx="5.06598" cy="5.07125" rx="5.06598" ry="5.07125" transform="matrix(0.83538 -0.55184 0.553172 0.831637 1586.22 570.91)" fill="white"/>
<ellipse cx="5.06598" cy="5.07125" rx="5.06598" ry="5.07125" transform="matrix(0.83538 -0.55184 0.553172 0.831637 1606.53 557.493)" fill="white"/>
<ellipse cx="5.06598" cy="5.07125" rx="5.06598" ry="5.07125" transform="matrix(0.83538 -0.55184 0.553172 0.831637 1540.98 634.792)" fill="white"/>
<ellipse cx="5.06598" cy="5.07125" rx="5.06598" ry="5.07125" transform="matrix(0.83538 -0.55184 0.553172 0.831637 1561.3 621.381)" fill="white"/>
<ellipse cx="5.06598" cy="5.07125" rx="5.06598" ry="5.07125" transform="matrix(0.83538 -0.55184 0.553172 0.831637 1581.61 607.964)" fill="white"/>
<ellipse cx="5.06598" cy="5.07125" rx="5.06598" ry="5.07125" transform="matrix(0.83538 -0.55184 0.553172 0.831637 1601.93 594.531)" fill="white"/>
<ellipse cx="5.06598" cy="5.07125" rx="5.06598" ry="5.07125" transform="matrix(0.83538 -0.55184 0.553172 0.831637 1622.25 581.114)" fill="white"/>
<ellipse cx="5.06598" cy="5.07125" rx="5.06598" ry="5.07125" transform="matrix(0.83538 -0.55184 0.553172 0.831637 1556.69 658.406)" fill="white"/>
<ellipse cx="5.06598" cy="5.07125" rx="5.06598" ry="5.07125" transform="matrix(0.83538 -0.55184 0.553172 0.831637 1577 644.995)" fill="white"/>
<ellipse cx="5.06598" cy="5.07125" rx="5.06598" ry="5.07125" transform="matrix(0.83538 -0.55184 0.553172 0.831637 1597.31 631.578)" fill="white"/>
<ellipse cx="5.06598" cy="5.07125" rx="5.06598" ry="5.07125" transform="matrix(0.83538 -0.55184 0.553172 0.831637 1617.64 618.145)" fill="white"/>
<ellipse cx="5.06598" cy="5.07125" rx="5.06598" ry="5.07125" transform="matrix(0.83538 -0.55184 0.553172 0.831637 1637.95 604.728)" fill="white"/>
<ellipse cx="5.06598" cy="5.07125" rx="5.06598" ry="5.07125" transform="matrix(0.83538 -0.55184 0.553172 0.831637 1572.4 682.026)" fill="white"/>
<ellipse cx="5.06598" cy="5.07125" rx="5.06598" ry="5.07125" transform="matrix(0.83538 -0.55184 0.553172 0.831637 1592.71 668.616)" fill="white"/>
<ellipse cx="5.06598" cy="5.07125" rx="5.06598" ry="5.07125" transform="matrix(0.83538 -0.55184 0.553172 0.831637 1613.03 655.199)" fill="white"/>
<ellipse cx="5.06598" cy="5.07125" rx="5.06598" ry="5.07125" transform="matrix(0.83538 -0.55184 0.553172 0.831637 1633.35 641.765)" fill="white"/>
<ellipse cx="5.06598" cy="5.07125" rx="5.06598" ry="5.07125" transform="matrix(0.83538 -0.55184 0.553172 0.831637 1653.66 628.349)" fill="white"/>
<ellipse cx="5.06598" cy="5.07125" rx="5.06598" ry="5.07125" transform="matrix(0.83538 -0.55184 0.553172 0.831637 1557.31 641.001)" fill="white"/>
<ellipse cx="5.06598" cy="5.07125" rx="5.06598" ry="5.07125" transform="matrix(0.83538 -0.55184 0.553172 0.831637 1577.62 627.59)" fill="white"/>
<ellipse cx="5.06598" cy="5.07125" rx="5.06598" ry="5.07125" transform="matrix(0.83538 -0.55184 0.553172 0.831637 1597.93 614.173)" fill="white"/>
<ellipse cx="5.06598" cy="5.07125" rx="5.06598" ry="5.07125" transform="matrix(0.83538 -0.55184 0.553172 0.831637 1618.26 600.74)" fill="white"/>
<ellipse cx="5.06598" cy="5.07125" rx="5.06598" ry="5.07125" transform="matrix(0.83538 -0.55184 0.553172 0.831637 1541.59 617.38)" fill="white"/>
<ellipse cx="5.06598" cy="5.07125" rx="5.06598" ry="5.07125" transform="matrix(0.83538 -0.55184 0.553172 0.831637 1561.9 603.971)" fill="white"/>
<ellipse cx="5.06598" cy="5.07125" rx="5.06598" ry="5.07125" transform="matrix(0.83538 -0.55184 0.553172 0.831637 1582.21 590.553)" fill="white"/>
<ellipse cx="5.06598" cy="5.07125" rx="5.06598" ry="5.07125" transform="matrix(0.83538 -0.55184 0.553172 0.831637 1602.54 577.119)" fill="white"/>
<ellipse cx="5.06598" cy="5.07125" rx="5.06598" ry="5.07125" transform="matrix(0.83538 -0.55184 0.553172 0.831637 1573.02 664.615)" fill="white"/>
<ellipse cx="5.06598" cy="5.07125" rx="5.06598" ry="5.07125" transform="matrix(0.83538 -0.55184 0.553172 0.831637 1593.33 651.204)" fill="white"/>
<ellipse cx="5.06598" cy="5.07125" rx="5.06598" ry="5.07125" transform="matrix(0.83538 -0.55184 0.553172 0.831637 1613.64 637.787)" fill="white"/>
<ellipse cx="5.06598" cy="5.07125" rx="5.06598" ry="5.07125" transform="matrix(0.83538 -0.55184 0.553172 0.831637 1633.96 624.354)" fill="white"/>
</g>
</g>
<defs>
<linearGradient id="paint0_linear_51_4" x1="20.2898" y1="860.87" x2="2034.77" y2="603.442" gradientUnits="userSpaceOnUse">
<stop stop-color="#9B51E0" stop-opacity="0"/>
<stop offset="1" stop-color="#9B51E0" stop-opacity="0.2"/>
</linearGradient>
<linearGradient id="paint1_linear_51_4" x1="1493.21" y1="639.68" x2="1227.61" y2="138.444" gradientUnits="userSpaceOnUse">
<stop offset="0.244792" stop-color="white" stop-opacity="0.07"/>
<stop offset="1" stop-color="#4E3FB8"/>
</linearGradient>
<linearGradient id="paint2_linear_51_4" x1="307.06" y1="259.122" x2="643.69" y2="257.468" gradientUnits="userSpaceOnUse">
<stop stop-color="white" stop-opacity="0.4"/>
<stop offset="1" stop-color="#4E3FB8"/>
</linearGradient>
<linearGradient id="paint3_linear_51_4" x1="696.836" y1="685.792" x2="863.704" y2="684.972" gradientUnits="userSpaceOnUse">
<stop stop-color="white" stop-opacity="0.4"/>
<stop offset="1" stop-color="#4E3FB8"/>
</linearGradient>
<clipPath id="clip0_51_4">
<rect width="1920" height="932" fill="white"/>
</clipPath>
</defs>
</svg>
