<svg width="231" height="33" viewBox="0 0 231 33" fill="none" xmlns="http://www.w3.org/2000/svg">
<path d="M0.7917 17.5711L8.4029 20.3882L11.3141 12.7077L3.70293 9.8905L0.7917 17.5711ZM230.206 14.8214L222.499 12.2708L219.852 20.044L227.559 22.5946L230.206 14.8214ZM8.52152 15.1099C9.02737 14.8831 9.25995 14.2901 9.04099 13.7853C8.82204 13.2806 8.23447 13.0552 7.72862 13.282L8.52152 15.1099ZM11.8246 11.503C11.3136 11.7176 11.0671 12.3051 11.274 12.8152C11.4808 13.3252 12.0626 13.5646 12.5736 13.3499L11.8246 11.503ZM16.5815 11.7235C17.0974 11.5217 17.3584 10.9404 17.1645 10.4251C16.9705 9.90989 16.395 9.65583 15.8791 9.85767L16.5815 11.7235ZM20.098 8.27293C19.5769 8.46044 19.3 9.0345 19.4797 9.55513C19.6593 10.0758 20.2273 10.3458 20.7485 10.1583L20.098 8.27293ZM24.8137 8.75991C25.3398 8.5874 25.6328 8.02132 25.4682 7.49553C25.3035 6.96975 24.7437 6.68336 24.2176 6.85586L24.8137 8.75991ZM28.534 5.51493C28.003 5.6706 27.6923 6.22727 27.8401 6.75829C27.9878 7.2893 28.5381 7.59358 29.0691 7.43791L28.534 5.51493ZM33.2185 6.29425C33.7541 6.15614 34.0827 5.60979 33.9525 5.07394C33.8223 4.53808 33.2825 4.21565 32.7469 4.35376L33.2185 6.29425ZM37.1303 3.30655C36.5903 3.42519 36.2424 3.95952 36.3531 4.50002C36.4639 5.04051 36.9914 5.3825 37.5313 5.26387L37.1303 3.30655ZM41.7581 4.41679C42.3018 4.31844 42.6692 3.79727 42.5788 3.25271C42.4883 2.70816 41.9741 2.34643 41.4304 2.44478L41.7581 4.41679ZM45.8619 1.73452C45.315 1.81079 44.9271 2.31692 44.9955 2.86501C45.064 3.41309 45.5628 3.79558 46.1098 3.71931L45.8619 1.73452ZM50.4132 3.2099C50.9625 3.15657 51.3708 2.66683 51.3253 2.11605C51.2797 1.56526 50.7975 1.16199 50.2481 1.21532L50.4132 3.2099ZM54.681 0.882127C54.1302 0.911344 53.7012 1.38299 53.7227 1.93559C53.7442 2.48818 54.2082 2.91246 54.7589 2.88324L54.681 0.882127ZM59.1116 2.75039C59.6628 2.74607 60.1123 2.29399 60.1156 1.74065C60.1189 1.1873 59.6747 0.742221 59.1236 0.746538L59.1116 2.75039ZM63.5256 0.812227C62.9751 0.791424 62.506 1.22283 62.4777 1.77581C62.4494 2.32878 62.8727 2.79392 63.4231 2.81472L63.5256 0.812227ZM67.7836 3.08111C68.3321 3.12744 68.8204 2.71798 68.8741 2.16656C68.9278 1.61514 68.5266 1.13057 67.978 1.08424L67.7836 3.08111ZM72.3789 1.55764C71.8333 1.48635 71.3274 1.87341 71.2488 2.42216C71.1703 2.97092 71.5489 3.47356 72.0945 3.54485L72.3789 1.55764ZM76.365 4.19996C76.9066 4.2953 77.4287 3.9307 77.5311 3.38561C77.6336 2.84051 77.2775 2.32135 76.7359 2.22601L76.365 4.19996ZM81.0898 3.08938C80.5531 2.9711 80.0164 3.31344 79.8912 3.85401C79.7659 4.39459 80.0996 4.9287 80.6364 5.04698L81.0898 3.08938ZM84.8535 6.06562C85.385 6.20507 85.9343 5.884 86.0806 5.3485C86.2268 4.81299 85.9145 4.26583 85.3831 4.12638L84.8535 6.06562ZM89.6225 5.32277C89.0967 5.16419 88.5364 5.46542 88.3712 5.99558C88.206 6.52574 88.4984 7.08406 89.0242 7.24264L89.6225 5.32277ZM93.1659 8.56668C93.6862 8.74214 94.2555 8.45893 94.4375 7.93412C94.6194 7.4093 94.3452 6.84162 93.8248 6.66617L93.1659 8.56668ZM97.9773 8.13303C97.4622 7.94318 96.8855 8.21063 96.6893 8.73041C96.4931 9.25019 96.7516 9.82546 97.2667 10.0153L97.9773 8.13303ZM101.329 11.568C101.84 11.7697 102.422 11.5153 102.63 11C102.838 10.4847 102.593 9.90349 102.082 9.70187L101.329 11.568ZM106.15 11.3526C105.643 11.1419 105.056 11.3859 104.839 11.8975C104.622 12.4092 104.857 12.9948 105.364 13.2056L106.15 11.3526ZM109.382 14.9081C109.886 15.1251 110.475 14.8885 110.698 14.3795C110.921 13.8704 110.694 13.2818 110.19 13.0648L109.382 14.9081ZM114.205 14.8136C113.703 14.5929 113.112 14.8254 112.885 15.3329C112.659 15.8404 112.882 16.4306 113.384 16.6513L114.205 14.8136ZM117.384 18.4138C117.886 18.6352 118.477 18.4036 118.705 17.8965C118.932 17.3894 118.71 16.7988 118.208 16.5773L117.384 18.4138ZM122.208 18.3345C121.705 18.115 121.115 18.349 120.889 18.857C120.664 19.365 120.888 19.9547 121.391 20.1741L122.208 18.3345ZM125.416 21.909C125.921 22.1235 126.51 21.884 126.73 21.3739C126.951 20.8638 126.721 20.2764 126.215 20.0618L125.416 21.909ZM130.239 21.7365C129.73 21.5297 129.146 21.7782 128.933 22.2915C128.72 22.8048 128.959 23.3885 129.467 23.5952L130.239 21.7365ZM133.555 25.2103C134.068 25.4064 134.648 25.1459 134.85 24.6285C135.053 24.111 134.801 23.5326 134.288 23.3365L133.555 25.2103ZM138.369 24.8379C137.851 24.6554 137.278 24.9309 137.089 25.4533C136.9 25.9756 137.167 26.5471 137.685 26.7296L138.369 24.8379ZM141.86 28.1299C142.383 28.2961 142.948 28.0029 143.121 27.4751C143.293 26.9473 143.009 26.3847 142.486 26.2185L141.86 28.1299ZM146.646 27.4581C146.117 27.3111 145.563 27.6243 145.409 28.1578C145.255 28.6912 145.56 29.2429 146.089 29.39L146.646 27.4581ZM150.375 30.4889C150.91 30.6143 151.451 30.2791 151.584 29.7402C151.716 29.2012 151.389 28.6626 150.854 28.5372L150.375 30.4889ZM155.087 29.4327C154.547 29.3309 154.021 29.6893 153.912 30.2333C153.803 30.7772 154.153 31.3006 154.693 31.4024L155.087 29.4327ZM159.059 32.1197C159.604 32.1959 160.114 31.8135 160.197 31.2654C160.281 30.7173 159.907 30.2112 159.362 30.1349L159.059 32.1197ZM163.685 30.6328C163.136 30.5833 162.646 30.99 162.589 31.5412C162.532 32.0923 162.931 32.5792 163.479 32.6287L163.685 30.6328ZM167.891 32.9165C168.441 32.9386 168.911 32.5084 168.941 31.9554C168.971 31.4025 168.548 30.9363 167.998 30.9142L167.891 32.9165ZM172.329 30.9802C171.778 30.9855 171.329 31.4384 171.327 31.9918C171.325 32.5451 171.77 32.9894 172.321 32.984L172.329 30.9802ZM176.793 32.8293C177.344 32.7966 177.77 32.3223 177.745 31.7699C177.72 31.2175 177.254 30.7962 176.703 30.8289L176.793 32.8293ZM181 30.4708C180.451 30.5296 180.048 31.0233 180.099 31.5736C180.15 32.1238 180.636 32.5222 181.185 32.4634L181 30.4708ZM185.597 31.8871C186.143 31.8032 186.524 31.2917 186.448 30.7447C186.372 30.1978 185.868 29.8225 185.322 29.9064L185.597 31.8871ZM189.622 29.1474C189.08 29.2552 188.722 29.7826 188.822 30.3254C188.922 30.8681 189.442 31.2208 189.984 31.113L189.622 29.1474ZM194.3 30.1619C194.837 30.032 195.174 29.4906 195.052 28.9527C194.93 28.4148 194.395 28.0841 193.858 28.214L194.3 30.1619ZM198.127 27.0931C197.595 27.2439 197.279 27.7977 197.422 28.3301C197.565 28.8626 198.112 29.172 198.644 29.0212L198.127 27.0931ZM202.846 27.7498C203.373 27.5802 203.669 27.0157 203.508 26.489C203.346 25.9623 202.788 25.6727 202.261 25.8423L202.846 27.7498ZM206.464 24.41C205.943 24.5973 205.666 25.1713 205.845 25.692C206.025 26.2127 206.593 26.4829 207.114 26.2956L206.464 24.41ZM211.208 24.7524C211.723 24.5492 211.983 23.9673 211.788 23.4525C211.592 22.9378 211.016 22.6853 210.501 22.8884L211.208 24.7524ZM214.608 21.1993C214.099 21.4174 213.856 22.0065 214.066 22.5151C214.277 23.0237 214.86 23.2592 215.37 23.0411L214.608 21.1993ZM219.381 21.2609C219.885 21.0295 220.112 20.4344 219.889 19.9317C219.665 19.4291 219.075 19.2092 218.572 19.4406L219.381 21.2609ZM222.561 17.5477C222.063 17.7915 221.85 18.3918 222.086 18.8886C222.322 19.3853 222.917 19.5904 223.415 19.3465L222.561 17.5477ZM6.45995 16.0485C7.15114 15.729 7.83831 15.4162 8.52152 15.1099L7.72862 13.282C7.03828 13.5915 6.34405 13.9076 5.64589 14.2302L6.45995 16.0485ZM12.5736 13.3499C13.9252 12.782 15.2611 12.2401 16.5815 11.7235L15.8791 9.85767C14.5428 10.3804 13.1914 10.9286 11.8246 11.503L12.5736 13.3499ZM20.7485 10.1583C22.1203 9.66466 23.4752 9.19884 24.8137 8.75991L24.2176 6.85586C22.8606 7.30086 21.4876 7.77292 20.098 8.27293L20.7485 10.1583ZM29.0691 7.43791C30.4703 7.02713 31.8532 6.64629 33.2185 6.29425L32.7469 4.35376C31.3601 4.71137 29.956 5.09806 28.534 5.51493L29.0691 7.43791ZM37.5313 5.26387C38.9596 4.95008 40.3682 4.66818 41.7581 4.41679L41.4304 2.44478C40.0157 2.70066 38.5826 2.98747 37.1303 3.30655L37.5313 5.26387ZM46.1098 3.71931C47.5646 3.51645 48.9987 3.34723 50.4132 3.2099L50.2481 1.21532C48.8059 1.35535 47.3441 1.52784 45.8619 1.73452L46.1098 3.71931ZM54.7589 2.88324C56.2306 2.80518 57.6811 2.76159 59.1116 2.75039L59.1236 0.746538C57.6631 0.757978 56.1827 0.802468 54.681 0.882127L54.7589 2.88324ZM63.4231 2.81472C64.8969 2.87042 66.3499 2.96004 67.7836 3.08111L67.978 1.08424C66.5142 0.960618 65.0305 0.869099 63.5256 0.812227L63.4231 2.81472ZM72.0945 3.54485C73.5363 3.73325 74.9593 3.95252 76.365 4.19996L76.7359 2.22601C75.3023 1.97366 73.8505 1.74992 72.3789 1.55764L72.0945 3.54485ZM80.6364 5.04698C82.0581 5.36025 83.4632 5.70079 84.8535 6.06562L85.3831 4.12638C83.9687 3.75524 82.5382 3.40852 81.0898 3.08938L80.6364 5.04698ZM89.0242 7.24264C90.4177 7.66282 91.7976 8.10523 93.1659 8.56668L93.8248 6.66617C92.4378 6.19843 91.0376 5.7495 89.6225 5.32277L89.0242 7.24264ZM97.2667 10.0153C98.6301 10.5178 99.9837 11.0365 101.329 11.568L102.082 9.70187C100.724 9.16545 99.3564 8.64133 97.9773 8.13303L97.2667 10.0153ZM105.364 13.2056C106.709 13.7646 108.047 14.3332 109.382 14.9081L110.19 13.0648C108.849 12.4874 107.503 11.9155 106.15 11.3526L105.364 13.2056ZM113.384 16.6513C114.719 17.2375 116.051 17.8258 117.384 18.4138L118.208 16.5773C116.876 15.99 115.542 15.4006 114.205 14.8136L113.384 16.6513ZM121.391 20.1741C122.73 20.7581 124.071 21.3376 125.416 21.909L126.215 20.0618C124.878 19.4936 123.543 18.9167 122.208 18.3345L121.391 20.1741ZM129.467 23.5952C130.823 24.1465 132.185 24.6861 133.555 25.2103L134.288 23.3365C132.932 22.8178 131.583 22.2833 130.239 21.7365L129.467 23.5952ZM137.685 26.7296C139.065 27.2164 140.456 27.6843 141.86 28.1299L142.486 26.2185C141.103 25.7797 139.732 25.3183 138.369 24.8379L137.685 26.7296ZM146.089 29.39C147.503 29.7828 148.931 30.1503 150.375 30.4889L150.854 28.5372C149.438 28.205 148.036 27.8442 146.646 27.4581L146.089 29.39ZM154.693 31.4024C156.131 31.6732 157.586 31.9133 159.059 32.1197L159.362 30.1349C157.92 29.933 156.496 29.6979 155.087 29.4327L154.693 31.4024ZM163.479 32.6287C164.93 32.7596 166.4 32.8565 167.891 32.9165L167.998 30.9142C166.541 30.8555 165.104 30.7608 163.685 30.6328L163.479 32.6287ZM172.321 32.984C173.791 32.9698 175.282 32.9191 176.793 32.8293L176.703 30.8289C175.224 30.9167 173.767 30.9663 172.329 30.9802L172.321 32.984ZM181.185 32.4634C182.636 32.308 184.106 32.1166 185.597 31.8871L185.322 29.9064C183.86 30.1312 182.42 30.3187 181 30.4708L181.185 32.4634ZM189.984 31.113C191.404 30.8307 192.842 30.5142 194.3 30.1619L193.858 28.214C192.426 28.5599 191.015 28.8705 189.622 29.1474L189.984 31.113ZM198.644 29.0212C200.027 28.6296 201.428 28.2062 202.846 27.7498L202.261 25.8423C200.864 26.2916 199.487 26.7081 198.127 27.0931L198.644 29.0212ZM207.114 26.2956C208.462 25.8109 209.827 25.2968 211.208 24.7524L210.501 22.8884C209.138 23.4255 207.793 23.9324 206.464 24.41L207.114 26.2956ZM215.37 23.0411C216.692 22.4753 218.029 21.8821 219.381 21.2609L218.572 19.4406C217.235 20.0547 215.914 20.6406 214.608 21.1993L215.37 23.0411ZM223.415 19.3465C224.096 19.0136 224.78 18.6738 225.467 18.3268L224.591 16.5387C223.91 16.882 223.233 17.2183 222.561 17.5477L223.415 19.3465Z" fill="white"/>
</svg>
